<svg width="16" height="16" viewBox="0 0 16 16" fill="none" xmlns="http://www.w3.org/2000/svg">
<g clip-path="url(#clip0_4167_6815)">
<rect width="16" height="16" fill="#FBE920"/>
<path d="M5 6V9H4.24304V7.77129H2.75696V9H2V6H2.75696V7.1828H4.24304V6H5Z" fill="#3E3A39"/>
<path d="M7 8.44368V9H5.11405V8.55749L6.07653 7.48299C6.29765 7.2344 6.33692 7.08276 6.33692 6.93971C6.33692 6.70796 6.20242 6.57317 5.93746 6.57317C5.7236 6.57317 5.54176 6.66854 5.42071 6.86786L5 6.54774C5.19233 6.2149 5.54176 6 5.99099 6C6.54728 6 6.91796 6.33697 6.91796 6.87231C6.91796 7.15842 6.85017 7.41973 6.50074 7.80343L5.92697 8.44368H7Z" fill="#3E3A39"/>
<path d="M7 7.5C7 6.63844 7.63446 6 8.5 6C9.36554 6 10 6.63375 10 7.5C10 8.36625 9.3617 9 8.5 9C7.6383 9 7 8.36094 7 7.5ZM9.35757 7.5C9.35757 6.94906 8.98936 6.57219 8.50059 6.57219C8.01182 6.57219 7.64362 6.94906 7.64362 7.5C7.64362 8.05094 8.01182 8.42781 8.50059 8.42781C8.98936 8.42781 9.35757 8.05094 9.35757 7.5Z" fill="#3E3A39"/>
<path d="M10.0548 8.71358C10.0548 8.50861 10.2067 8.37427 10.3973 8.37427C10.5879 8.37427 10.7401 8.50754 10.7401 8.71358C10.7414 8.75938 10.7335 8.80497 10.7168 8.84766C10.7002 8.89035 10.6751 8.92927 10.6432 8.96212C10.6112 8.99496 10.573 9.02107 10.5308 9.0389C10.4886 9.05673 10.4433 9.06592 10.3975 9.06592C10.3516 9.06592 10.3063 9.05673 10.2641 9.0389C10.2219 9.02107 10.1837 8.99496 10.1517 8.96212C10.1198 8.92927 10.0947 8.89035 10.0781 8.84766C10.0615 8.80497 10.0535 8.75938 10.0548 8.71358Z" fill="#3E3A39"/>
<path d="M13 7.86116V8.97002H12.4286V8.72912C12.3152 8.90598 12.0958 9 11.7867 9C11.2935 9 11 8.74711 11 8.41109C11 8.068 11.2622 7.82955 11.9042 7.82955H12.3893C12.3893 7.58783 12.2328 7.44803 11.9042 7.44803C11.6812 7.44803 11.4503 7.51643 11.2977 7.62843L11.0783 7.23492C11.3092 7.08313 11.6496 7.00001 11.9863 7.00001C12.6282 6.99783 13 7.27226 13 7.86116ZM12.3893 8.35605V8.15684H11.9706C11.6851 8.15684 11.595 8.25413 11.595 8.38439C11.595 8.52501 11.7241 8.61902 11.9393 8.61902C12.1428 8.62011 12.3191 8.53291 12.3893 8.35605V8.35605Z" fill="#3E3A39"/>
<circle cx="11.25" cy="12" r="4.75" fill="#FBE920" stroke="#FBE920"/>
<path fill-rule="evenodd" clip-rule="evenodd" d="M15.2892 11.4528L14.2764 12L15.2892 12.5426C15.3497 12.5754 15.4028 12.6191 15.4454 12.6711C15.4879 12.7232 15.5191 12.7826 15.5372 12.846C15.5553 12.9093 15.5599 12.9754 15.5507 13.0404C15.5415 13.1054 15.5188 13.1681 15.4838 13.2249C15.4488 13.2817 15.4022 13.3315 15.3467 13.3714C15.2912 13.4113 15.2278 13.4406 15.1602 13.4575C15.0927 13.4744 15.0222 13.4787 14.9528 13.4702C14.8835 13.4616 14.8166 13.4402 14.7561 13.4074L12.9415 12.4272C12.8583 12.3821 12.7897 12.3168 12.7428 12.2382C12.696 12.1595 12.6726 12.0705 12.6753 11.9804C12.6767 11.9414 12.6831 11.9027 12.6943 11.8651C12.7315 11.739 12.8197 11.6316 12.9403 11.5658L14.7548 10.5891C14.8157 10.5562 14.8828 10.5348 14.9525 10.5262C15.0221 10.5176 15.0929 10.522 15.1608 10.539C15.2286 10.5561 15.2922 10.5856 15.3479 10.6257C15.4036 10.6659 15.4503 10.716 15.4853 10.773C15.5205 10.8297 15.5434 10.8922 15.5525 10.9572C15.5617 11.0221 15.5571 11.0881 15.5388 11.1514C15.5206 11.2146 15.4891 11.2738 15.4462 11.3256C15.4034 11.3773 15.35 11.4206 15.2892 11.4528ZM14.3306 14.1051L12.5166 13.1266C12.4355 13.083 12.3435 13.06 12.25 13.0599C12.1564 13.0599 12.0644 13.0828 11.9832 13.1264C11.902 13.17 11.8344 13.2328 11.7871 13.3085C11.7398 13.3842 11.7145 13.4702 11.7136 13.5579V15.5125C11.7183 15.6424 11.7766 15.7654 11.8762 15.8557C11.9759 15.9461 12.109 15.9965 12.2476 15.9965C12.3862 15.9965 12.5193 15.9461 12.619 15.8557C12.7186 15.7654 12.7769 15.6424 12.7816 15.5125V14.417L13.7968 14.9642C13.8574 14.997 13.9243 15.0184 13.9936 15.027C14.063 15.0356 14.1335 15.0314 14.2011 15.0145C14.2687 14.9975 14.3321 14.9683 14.3876 14.9284C14.4432 14.8885 14.4898 14.8388 14.5249 14.782C14.5599 14.7252 14.5827 14.6625 14.5919 14.5974C14.6011 14.5324 14.5965 14.4663 14.5785 14.4029C14.5604 14.3395 14.5293 14.2801 14.4867 14.228C14.4442 14.1759 14.3911 14.1322 14.3306 14.0993V14.1051ZM12.2399 12.1932L11.4836 12.8937C11.4577 12.9162 11.4242 12.9295 11.3889 12.9312H11.1669C11.1317 12.9292 11.0983 12.916 11.0722 12.8937L10.3202 12.1908C10.2967 12.1668 10.2828 12.1358 10.2809 12.1032V11.8956C10.2829 11.8629 10.2968 11.8318 10.3202 11.8074L11.0722 11.1046C11.0984 11.0825 11.1318 11.0695 11.1669 11.0677H11.3889C11.4241 11.0692 11.4576 11.0823 11.4836 11.1046L12.2375 11.8074C12.2607 11.8318 12.2744 11.863 12.2762 11.8956V12.1032C12.2745 12.1357 12.2608 12.1667 12.2375 12.1908L12.2399 12.1932ZM11.6373 11.9983C11.6344 11.9647 11.6195 11.933 11.5949 11.9083L11.3766 11.7059C11.3504 11.6839 11.317 11.6709 11.2819 11.669H11.2739C11.2389 11.6708 11.2057 11.6838 11.1798 11.7059L10.9615 11.9083C10.9381 11.9331 10.9244 11.9646 10.9228 11.9977V12.0052C10.9244 12.0378 10.9381 12.0688 10.9615 12.0928L11.1811 12.2946C11.207 12.3167 11.2402 12.3297 11.2751 12.3315H11.2831C11.3183 12.3297 11.3517 12.3167 11.3778 12.2946L11.5961 12.0911C11.6197 12.067 11.6338 12.0361 11.6361 12.0035L11.6373 11.9983ZM8.22525 9.89493L10.0398 10.8705C10.1211 10.9141 10.2131 10.9371 10.3067 10.9371C10.4004 10.9371 10.4924 10.9141 10.5736 10.8705C10.6549 10.8268 10.7225 10.764 10.7698 10.6882C10.8172 10.6125 10.8426 10.5264 10.8435 10.4386V8.48578C10.8388 8.35591 10.7805 8.23284 10.6808 8.14252C10.5812 8.05221 10.448 8.00173 10.3094 8.00173C10.1709 8.00173 10.0377 8.05221 9.93807 8.14252C9.83843 8.23284 9.78011 8.35591 9.77541 8.48578V9.58127L8.75898 9.03352C8.69842 9.00066 8.63155 8.97931 8.56219 8.97068C8.49282 8.96205 8.42233 8.96632 8.35472 8.98324C8.28712 9.00016 8.22373 9.0294 8.16818 9.06929C8.11262 9.10918 8.06599 9.15893 8.03095 9.21572C7.9959 9.27251 7.97313 9.33521 7.96393 9.40025C7.95473 9.46529 7.95928 9.5314 7.97732 9.59479C7.99536 9.65818 8.02655 9.71762 8.06909 9.76971C8.11163 9.8218 8.16469 9.86553 8.22525 9.89839V9.89493ZM12.2073 10.9374C12.3145 10.9453 12.4217 10.9226 12.5148 10.8722L14.3287 9.89204C14.3893 9.85918 14.4423 9.81546 14.4849 9.76337C14.5274 9.71128 14.5586 9.65184 14.5766 9.58845C14.5947 9.52505 14.5992 9.45895 14.59 9.39391C14.5808 9.32887 14.5581 9.26617 14.523 9.20938C14.488 9.15259 14.4413 9.10283 14.3858 9.06294C14.3302 9.02305 14.2668 8.99382 14.1992 8.9769C14.0627 8.94273 13.9173 8.96082 13.795 9.02718L12.7798 9.57954V8.48405C12.7751 8.35418 12.7168 8.23111 12.6171 8.14079C12.5175 8.05048 12.3843 8 12.2458 8C12.1072 8 11.974 8.05048 11.8744 8.14079C11.7747 8.23111 11.7164 8.35418 11.7117 8.48405V10.4386C11.7115 10.5652 11.7626 10.6871 11.8546 10.7796C11.9466 10.8722 12.0727 10.9286 12.2073 10.9374ZM10.3497 13.0615C10.2426 13.0533 10.1353 13.076 10.0423 13.1266L8.22525 14.1028C8.10294 14.1691 8.01376 14.2783 7.97732 14.4064C7.94088 14.5344 7.96017 14.6707 8.03095 14.7854C8.10172 14.9001 8.21819 14.9837 8.35472 15.0179C8.49126 15.0521 8.63667 15.034 8.75898 14.9676L9.77541 14.4205V15.516C9.78011 15.6458 9.83843 15.7689 9.93807 15.8592C10.0377 15.9495 10.1709 16 10.3094 16C10.448 16 10.5812 15.9495 10.6808 15.8592C10.7805 15.7689 10.8388 15.6458 10.8435 15.516V13.5579C10.8432 13.432 10.7922 13.3108 10.7006 13.2188C10.609 13.1267 10.4837 13.0705 10.3497 13.0615ZM9.8578 12.1465C9.89283 12.0384 9.88755 11.9225 9.84284 11.8176C9.79813 11.7128 9.71665 11.6254 9.61185 11.5699L7.79913 10.5903C7.67671 10.5245 7.53152 10.5068 7.39525 10.5411C7.25897 10.5753 7.14267 10.6587 7.07171 10.773C7.03658 10.8296 7.01377 10.8922 7.00459 10.9571C6.9954 11.022 7.00004 11.088 7.01822 11.1512C7.03641 11.2144 7.06778 11.2736 7.11052 11.3254C7.15327 11.3772 7.20654 11.4205 7.26725 11.4528L8.27998 12L7.26725 12.5426C7.20668 12.5753 7.15359 12.6189 7.11101 12.6709C7.06842 12.7229 7.03717 12.7822 7.01904 12.8455C7.00091 12.9089 6.99626 12.9749 7.00535 13.0399C7.01444 13.1049 7.03709 13.1676 7.07202 13.2244C7.10694 13.2811 7.15345 13.3309 7.20889 13.3709C7.26434 13.4108 7.32762 13.4401 7.39514 13.4571C7.46266 13.4741 7.53309 13.4785 7.60241 13.4699C7.67172 13.4614 7.73857 13.4402 7.79913 13.4074L9.61185 12.4272C9.72858 12.3661 9.81687 12.2658 9.8578 12.1465ZM15.5856 8.90495H15.5038V8.99893H15.5849C15.6225 8.99893 15.6464 8.98279 15.6464 8.9528C15.6464 8.92282 15.6249 8.90495 15.5856 8.90495ZM15.4048 8.81846H15.5893C15.6889 8.81846 15.7553 8.86978 15.7553 8.94934C15.7556 8.97149 15.7496 8.99332 15.7379 9.01258C15.7263 9.03183 15.7093 9.04782 15.6889 9.05889L15.7608 9.15576V9.17536H15.6569L15.5849 9.08311H15.5038V9.17536H15.4042L15.4048 8.81846ZM15.9151 9.00412C15.9181 8.96047 15.9114 8.91672 15.8954 8.87562C15.8795 8.83453 15.8546 8.797 15.8223 8.7654C15.7901 8.7338 15.7512 8.70883 15.7081 8.69206C15.665 8.67529 15.6187 8.66709 15.572 8.66798C15.3685 8.66798 15.2332 8.80578 15.2332 9.00412C15.2332 9.19324 15.3685 9.33969 15.572 9.33969C15.6187 9.34074 15.6651 9.33267 15.7082 9.316C15.7514 9.29933 15.7904 9.27442 15.8227 9.24286C15.855 9.2113 15.88 9.17377 15.896 9.13267C15.912 9.09157 15.9181 9.04779 15.9151 9.00412ZM16 9.00412C16 9.22841 15.8401 9.41579 15.5696 9.41579C15.299 9.41579 15.1459 9.22668 15.1459 9.00412C15.1459 8.78156 15.3039 8.59244 15.5696 8.59244C15.8352 8.59244 16 8.77925 16 9.00412Z" fill="#201E1E"/>
</g>
<defs>
<clipPath id="clip0_4167_6815">
<rect width="16" height="16" fill="white"/>
</clipPath>
</defs>
</svg>
